HIERARCHY
ROOT Pelvis
{
	OFFSET 0.000000 0.000000 0.000000
	CHANNELS 6 Xposition Yposition Zposition Xrotation Yrotation Zrotation
	JOINT LeftUpLeg_virtual
	{
		OFFSET 0.000000 0.000000 0.000000
		CHANNELS 3 Xrotation Yrotation Zrotation
		JOINT LeftUpLeg
		{
			OFFSET 18.735201 -5.666702 -4.541200
			CHANNELS 3 Xrotation Yrotation Zrotation
			JOINT LeftLeg
			{
				OFFSET -0.021200 -31.938179 0.493100
				CHANNELS 3 Xrotation Yrotation Zrotation
				JOINT LeftFoot
				{
					OFFSET 0.021200 -31.938179 -4.336299
					CHANNELS 3 Xrotation Yrotation Zrotation
					JOINT LeftToeBase
					{
						OFFSET 0.943001 -26.722000 15.023500
						CHANNELS 3 Xrotation Yrotation Zrotation
						End Site
						{
							OFFSET 0 0 0
						}
					}
				}
			}
		}
	}
	JOINT RightUpLeg_virtual
	{
		OFFSET 0.000000 0.000000 0.000000
		CHANNELS 3 Xrotation Yrotation Zrotation
		JOINT RightUpLeg
		{
			OFFSET -18.735201 -5.666702 -4.541200
			CHANNELS 3 Xrotation Yrotation Zrotation
			JOINT RightLeg
			{
				OFFSET 0.018946 -31.938133 0.493100
				CHANNELS 3 Xrotation Yrotation Zrotation
				JOINT RightFoot
				{
					OFFSET -0.018946 -31.938126 -4.336299
					CHANNELS 3 Xrotation Yrotation Zrotation
					JOINT RightToeBase
					{
						OFFSET -0.943001 -26.722004 15.023500
						CHANNELS 3 Xrotation Yrotation Zrotation
						End Site
						{
							OFFSET 0 0 0
						}
					}
				}
			}
		}
	}
	JOINT Hips_virtual
	{
		OFFSET 0.000000 0.000000 0.000000
		CHANNELS 3 Xrotation Yrotation Zrotation
		JOINT Hips
		{
			OFFSET -0.000000 -0.000000 -0.000000
			CHANNELS 3 Xrotation Yrotation Zrotation
			JOINT Spine
			{
				OFFSET 0.000000 10.199997 -0.299500
				CHANNELS 3 Xrotation Yrotation Zrotation
				JOINT Spine1
				{
					OFFSET 0.000000 11.900002 -1.516600
					CHANNELS 3 Xrotation Yrotation Zrotation
					JOINT Spine2
					{
						OFFSET 0.000000 13.600006 -2.842500
						CHANNELS 3 Xrotation Yrotation Zrotation
						JOINT Neck_virtual
						{
							OFFSET 0.000000 0.000000 0.000000
							CHANNELS 3 Xrotation Yrotation Zrotation
							JOINT Neck
							{
								OFFSET 0.000000 9.624100 -2.890100
								CHANNELS 3 Xrotation Yrotation Zrotation
								JOINT Head
								{
									OFFSET 0.000000 14.068802 -1.351900
									CHANNELS 3 Xrotation Yrotation Zrotation
									End Site
									{
										OFFSET 0 0 0
									}
								}
							}
						}
						JOINT LeftShoulder_virtual
						{
							OFFSET 0.000000 0.000000 0.000000
							CHANNELS 3 Xrotation Yrotation Zrotation
							JOINT LeftShoulder
							{
								OFFSET 15.263000 10.923401 -0.547700
								CHANNELS 3 Xrotation Yrotation Zrotation
								JOINT LeftArm
								{
									OFFSET 25.438599 -2.830597 -13.032500
									CHANNELS 3 Xrotation Yrotation Zrotation
									JOINT LeftForeArm
									{
										OFFSET 29.960503 0.000000 0.000000
										CHANNELS 3 Xrotation Yrotation Zrotation
										JOINT LeftHand
										{
											OFFSET 27.849251 0.000000 0.000000
											CHANNELS 3 Xrotation Yrotation Zrotation
											End Site
											{
												OFFSET 0 0 0
											}
										}
									}
								}
							}
						}
						JOINT RightShoulder_virtual
						{
							OFFSET 0.000000 0.000000 0.000000
							CHANNELS 3 Xrotation Yrotation Zrotation
							JOINT RightShoulder
							{
								OFFSET -15.263000 10.923401 -0.547700
								CHANNELS 3 Xrotation Yrotation Zrotation
								JOINT RightArm
								{
									OFFSET -25.438599 -2.830597 -13.032500
									CHANNELS 3 Xrotation Yrotation Zrotation
									JOINT RightForeArm
									{
										OFFSET -29.960503 0.000000 0.000000
										CHANNELS 3 Xrotation Yrotation Zrotation
										JOINT RightHand
										{
											OFFSET -27.849251 0.000000 0.000000
											CHANNELS 3 Xrotation Yrotation Zrotation
											End Site
											{
												OFFSET 0 0 0
											}
										}
									}
								}
							}
						}
					}
				}
			}
		}
	}
}
MOTION
Frames: 4
Frame Time: 0.03333333
1.065453 88.673523 2.304073 0.000000 0.000000 0.000000 0.994028 -10.549294 1.118756 -42.280394 6.583849 18.727390 61.156530 3.857011 -3.195324 8.031143 4.725284 -6.919109 0.000000 0.000000 0.000000 2.414870 2.977012 7.711736 -27.203054 -5.506517 -6.643357 40.326270 -3.245281 -4.328736 -11.373683 -4.388656 2.143370 0.000000 0.000000 0.000000 2.180657 -1.857520 0.411383 9.937794 2.135589 1.061895 11.770044 2.385982 1.985721 4.903669 1.476423 1.315512 0.000000 0.000000 0.000000 5.583830 0.657118 0.110345 0.808409 0.019173 0.004155 0.000000 0.000000 0.000000 4.769341 0.545735 -0.781337 2.055866 -7.480090 -10.599258 -16.050456 -1.674994 -58.112807 -5.207839 -43.947421 -8.714836 0.000000 0.000000 0.000000 7.028196 1.814992 0.769207 3.930934 12.987382 8.757833 -7.128696 -1.077756 52.573933 -1.684985 36.261505 5.581259 0.000000 0.000000 0.000000 
1.040270 88.721718 2.405160 0.000000 0.000000 0.000000 0.900255 -10.574301 1.021982 -42.376276 6.592925 18.635348 61.018219 3.839784 -3.140947 7.981169 4.686991 -6.863873 0.000000 0.000000 0.000000 2.513891 3.097488 7.728718 -27.022655 -5.490188 -6.588330 40.152462 -3.285040 -4.334802 -11.523867 -4.433072 2.099017 0.000000 0.000000 0.000000 2.172217 -1.915404 0.417998 9.833929 2.156309 1.082152 11.772642 2.382196 1.963235 4.893270 1.491320 1.325622 0.000000 0.000000 0.000000 5.603611 0.662083 0.101159 0.815527 0.016643 -0.006498 0.000000 0.000000 0.000000 4.797943 0.535253 -0.788444 2.082932 -7.547515 -10.698579 -16.169269 -1.574721 -58.058896 -5.258540 -43.983966 -8.719694 0.000000 0.000000 0.000000 7.030268 1.842221 0.762770 3.948684 12.982783 8.792254 -7.280852 -1.511118 52.751873 -1.820368 35.851584 5.695578 0.000000 0.000000 0.000000 
0.991387 88.814583 2.601195 0.000000 0.000000 0.000000 0.724577 -10.628105 0.838227 -42.555647 6.609320 18.459971 60.726536 3.807546 -3.036551 7.859189 4.615130 -6.756664 0.000000 0.000000 0.000000 2.702700 3.325072 7.757192 -26.680362 -5.458449 -6.487989 39.834800 -3.354855 -4.340457 -11.799291 -4.513978 2.029495 0.000000 0.000000 0.000000 2.162338 -2.022852 0.435594 9.639764 2.223713 1.118036 11.770986 2.379780 1.924094 4.874376 1.517097 1.342943 0.000000 0.000000 0.000000 5.639565 0.672974 0.082383 0.827718 0.011022 -0.027314 0.000000 0.000000 0.000000 4.852128 0.516538 -0.802345 2.132101 -7.665458 -10.880368 -16.362377 -1.390000 -57.946300 -5.348639 -44.066448 -8.725479 0.000000 0.000000 0.000000 7.034293 1.892002 0.751344 3.978307 12.969716 8.855716 -7.548652 -2.296668 53.072178 -2.056250 35.099584 5.897188 0.000000 0.000000 0.000000 
0.921891 88.946136 2.882886 0.000000 0.000000 0.000000 0.489387 -10.714493 0.585604 -42.794933 6.630626 18.217578 60.257029 3.763897 -2.889437 7.628186 4.517508 -6.603054 0.000000 0.000000 0.000000 2.965433 3.632885 7.787741 -26.208474 -5.414039 -6.359558 39.423613 -3.439283 -4.336114 -12.157922 -4.618333 1.963962 0.000000 0.000000 0.000000 2.163218 -2.162562 0.470908 9.381406 2.375097 1.161091 11.755001 2.387821 1.876710 4.848510 1.547832 1.362713 0.000000 0.000000 0.000000 5.685912 0.691154 0.053508 0.841495 0.001524 -0.057274 0.000000 0.000000 0.000000 4.925744 0.494079 -0.822350 2.195473 -7.804855 -11.117742 -16.560919 -1.144138 -57.769030 -5.460632 -44.204400 -8.725673 0.000000 0.000000 0.000000 7.039299 1.956763 0.736936 4.010202 12.942042 8.939153 -7.872690 -3.297975 53.477140 -2.338255 34.121877 6.143226 0.000000 0.000000 0.000000 
